<svg width="280" height="280" viewBox="0 0 280 280" fill="none" xmlns="http://www.w3.org/2000/svg">
<mask id="mask0" mask-type="alpha" maskUnits="userSpaceOnUse" x="0" y="0" width="280" height="280">
<rect width="280" height="280" fill="#C4C4C4"/>
</mask>
<g mask="url(#mask0)">
<path d="M252.791 91.0595C244.513 82.9082 229.12 84.8565 220.218 88.6806L217.624 106.247C227.141 102.437 243.05 93.3142 248.123 97.7054C255.154 103.792 253.45 115.539 246.943 115.778C242.093 115.956 242.497 111.754 243.219 108.602C242.607 109.164 239.93 112.061 240.205 114.685C240.548 117.966 243.975 123.143 251.409 118.852C258.843 114.56 262.519 100.639 252.791 91.0595Z" fill="#D2CBC5"/>
<path d="M248.123 97.705C255.154 103.791 251.219 113.668 246.943 115.777C249.417 114.757 255.173 111.569 255.88 105.291C256.765 97.4444 249.751 90.3336 242.56 90.5969C237.356 90.7874 225.26 92.7376 219.419 94.2913L217.624 106.246C227.141 102.437 243.05 93.3138 248.123 97.705Z" fill="#121A39"/>
<path d="M32.0213 89.2679C29.3718 90.0795 32.0618 75.6468 33.5987 68.3342C35.6638 66.8072 41.7311 65.7366 43.6351 66.5153C44.1656 66.7749 45.2619 66.7346 45.4031 64.4968C45.5444 62.2589 45.9784 59.3776 46.1778 58.2168C51.731 57.4365 63.2601 55.2242 64.9507 52.617C67.064 49.3579 79.7117 38.0658 87.2756 34.2722C94.8395 30.4785 99.6766 25.3893 99.5153 20.9856C99.3539 16.5819 98.2076 12.7166 94.9777 9.87659C92.2993 7.52145 90.0035 6.65394 89.0891 6.07345L121.364 4.89092C123.45 8.4799 127.648 16.7286 127.76 21.0113C127.872 25.294 127.636 27.2674 127.504 27.7188L155.215 29.941C156.457 28.8163 159.685 26.1155 162.656 24.3098C165.626 22.5041 165.891 19.4196 165.754 15.9352C165.573 11.3696 162.162 7.48203 159.475 6.06222C157.825 5.19022 157.094 4.82637 156.823 4.70812L156.746 4.71093C156.665 4.65646 156.653 4.63382 156.823 4.70812L188.13 3.56108C190.616 12.5125 194.359 17.9975 194.943 28.0388C195.131 31.26 194.769 35.7704 194.537 36.7613C194.306 37.7522 194.208 37.9269 194.188 37.8904C197.233 40.7559 203.876 47.2925 206.093 50.5157C208.864 54.5447 221.433 70.0481 221.802 81.6447C222.171 93.2413 221.812 104.753 215.335 115.372C210.154 123.868 201.134 134.536 196.735 137.879C159.117 168.45 86.8609 147.877 70.598 133.625C54.3352 119.373 47.0007 91.3425 46.849 88.7246C46.7276 86.6303 45.1818 86.3856 44.4241 86.525C41.3938 87.1011 34.6709 88.4564 32.0213 89.2679Z" fill="#D2CBC5"/>
<path d="M119.259 136.699L118.158 141.343C137.265 145.699 146.591 145.809 166.18 141.841L165.27 136.818C148.174 140.211 138.114 140.239 119.259 136.699Z" fill="#121A39"/>
<path d="M45.4028 64.4966C45.2616 66.7345 43.0713 66.3683 43.6348 66.5152C44.1984 66.6621 53.8229 66.9161 60.0513 68.2021C59.8479 65.6978 56.5801 64.868 53.9479 64.6296C52.1586 64.4675 47.7205 64.7839 45.4028 64.4966Z" fill="#121A39"/>
<path d="M99.5153 20.9847C99.6766 25.3884 94.8394 30.4776 87.2756 34.2713C103.775 28.6246 112.681 27.398 127.503 27.718C127.636 27.2666 127.872 25.2931 127.76 21.0104C127.648 16.7277 123.45 8.47906 121.364 4.89007L89.0891 6.0726C90.0035 6.65309 92.2993 7.5206 94.9777 9.87574C98.2076 12.7158 99.3539 16.581 99.5153 20.9847Z" fill="#121A39"/>
<path d="M206.093 50.516C203.876 47.2928 197.233 40.7562 194.188 37.8908C194.59 40.2204 194.899 45.7239 192.924 49.1007C190.949 52.4774 189.728 53.7948 189.365 54.0314C192.789 54.0548 201.624 56.1945 209.566 64.5665C217.509 72.9384 221.033 79.4405 221.802 81.645C221.433 70.0484 208.864 54.545 206.093 50.516Z" fill="#121A39"/>
<path d="M44.4239 86.5242C41.3936 87.1004 35.9873 93.9222 31.6387 93.0768C30.287 92.814 30.7065 86.3093 31.2302 81.9281C40.8744 76.2517 47.5962 77.5568 60.7987 84.0264C60.082 88.332 59.2448 98.8974 61.728 109.39C64.2111 119.882 78.171 137.701 85.6014 142.452C80.0913 140.331 76.8046 138.386 70.5979 133.624C54.335 119.373 47.0006 91.3418 46.8489 88.7239C46.7275 86.6296 45.1816 86.3848 44.4239 86.5242Z" fill="#121A39"/>
<ellipse cx="70.0475" cy="100.322" rx="5.52227" ry="7.02835" transform="rotate(-2.09831 70.0475 100.322)" fill="black"/>
<path d="M31.7171 234.52L13.7922 263.602L12.024 261.987C18.3402 249.109 21.2216 241.849 25.041 228.819L31.7171 234.52Z" fill="#A5644A"/>
<path d="M31.717 234.519L13.792 263.602L13.5481 263.434L28.2722 232.142L31.717 234.519Z" fill="#121A39"/>
<path d="M50.9836 268.784C51.5955 257.921 51.9038 251.829 51.9896 240.952L59.3059 237.903L53.5443 268.784H50.9836Z" fill="#A5644A"/>
<path d="M50.9836 268.785L51.9896 240.953L55.2514 239.062L51.4713 268.785H50.9836Z" fill="#121A39"/>
<path d="M36.8385 127.701C37.3873 128.504 38.5152 130.225 38.6371 130.689C38.7591 131.152 40.6186 132.081 41.5332 132.487C41.4824 132.853 41.3137 133.603 41.0454 133.676C40.7772 133.749 40.6695 133.727 40.6491 133.707C41.4824 134.713 43.1123 136.792 42.966 137.06C42.7831 137.395 41.838 138.554 40.6491 138.859C39.4602 139.163 38.6371 139.682 38.4847 140.596C38.3628 141.328 38.2104 142.425 38.1494 142.883L38.9115 142.73C39.0233 142.852 39.1188 143.236 38.6067 143.797C37.9665 144.498 36.8385 146.48 36.7471 147.364C36.6739 148.071 36.7166 148.187 36.7471 148.156C38.9115 146.856 43.539 144.163 44.734 143.797C45.929 143.431 47.9349 142.12 48.7885 141.511V142.334C52.0199 139.082 58.6838 132.359 59.4886 131.481C60.2934 130.603 60.4946 130.323 60.4946 130.292C60.7995 128.778 61.6104 125.451 62.4152 124.256C63.22 123.061 63.787 122.58 63.9699 122.488H65.2198H67.6585C66.7846 124.165 64.9942 126.835 66.0428 128.738C67.0915 130.64 67.2013 130.363 67.3537 130.292C67.7602 130.262 66.7745 131.378 66.2867 132.06C65.677 132.914 65.2807 133.219 64.0309 134.591C62.6907 136.062 54.5284 150.011 51.1358 155.534C51.1663 156.824 51.1602 159.789 50.892 161.326C50.6237 162.862 50.6989 166.843 50.77 168.642C50.2823 168.459 49.1543 168.124 48.5446 168.246C47.9349 168.368 47.7825 168.5 47.7825 168.551L46.4717 177.208C47.2338 178.316 48.9592 181.433 49.764 185.043C50.77 189.555 58.9704 223.728 61.3482 230.892C63.2504 236.623 65.677 239.763 66.6525 240.616C63.3195 239.946 56.0683 239.324 53.727 242.202L53.6378 242.311C50.7526 245.858 48.4227 248.722 45.4657 248.421C43.1487 248.184 41.6551 242.232 39.6431 242.415C37.6311 242.598 35.7106 244.214 34.9485 243.573C33.8205 241.267 31.3086 236.556 30.2843 236.166C29.004 235.678 26.87 230.343 21.9925 229.977C17.1149 229.611 8.7926 228.484 8 226.502C13.03 221.33 23.6447 209.778 25.864 204.949C28.6381 198.913 32.845 188.03 31.8085 185.043C30.9794 182.653 26.6871 166.478 26.2298 161.326C25.5847 158.033 27.0712 152.625 27.876 151.479C28.882 150.046 29.1869 146.876 28.5162 145.291C28.0017 144.075 27.6143 143.752 27.4669 143.736L27.4492 143.736C27.4547 143.736 27.4605 143.736 27.4669 143.736L30.5282 143.797H30.8025C31.3919 142.303 32.595 139.23 32.6926 138.889C32.7901 138.548 32.8349 138.361 32.845 138.31L31.8085 137.975C31.0972 137.629 29.5222 136.712 28.9125 135.81C28.3028 134.908 28.252 134.377 28.3028 134.225C27.561 135.475 26.1933 138.743 26.6566 141.816C27.2358 145.657 27.1915 160.258 22.6631 162.789C17.7551 165.533 15.987 159.934 14.8895 158.369C15.9565 159.151 16.7278 161.448 19.6756 161.448C23.7606 161.448 18.5525 148.656 21.7486 141.511C23.8071 136.908 27.3578 131.979 29.2783 131.024C31.9914 124.409 36.3406 127.041 36.8385 127.701Z" fill="#D2CBC5"/>
<path d="M25.864 204.95C23.6447 209.778 13.03 221.33 8 226.502C15.6618 221.432 31.778 208.516 34.9485 197.42C38.1189 186.323 38.2408 184.179 37.9055 184.494C34.5623 179.729 26.7236 162.137 26.7236 154.65C26.2049 156.748 25.8523 159.399 26.2298 161.326C26.6871 166.478 30.9794 182.653 31.8085 185.043C32.845 188.031 28.6381 198.914 25.864 204.95Z" fill="#121A39"/>
<path d="M50.8918 161.326C51.1601 159.79 51.1661 156.825 51.1357 155.534L48.1786 160.656C49.0793 163.812 49.6695 165.553 50.7698 168.643C50.6987 166.844 50.6235 162.863 50.8918 161.326Z" fill="#121A39"/>
<path d="M30.5283 143.797L27.4494 143.736C29.0159 144.067 29.7265 144.329 30.2235 145.139L30.8027 143.797H30.5283Z" fill="#121A39"/>
<path d="M29.2781 131.024C31.9912 124.409 36.3404 127.041 36.8383 127.701C39.1423 131.637 36.3669 138.71 33.1192 138.401C32.8993 138.38 32.1538 138.127 31.8083 137.975C31.097 137.629 29.522 136.712 28.9123 135.81C28.3026 134.908 28.2518 134.377 28.3026 134.225C27.5608 135.475 26.1931 138.743 26.6564 141.816C27.2356 145.657 27.1913 160.258 22.6629 162.789C17.7549 165.533 15.9868 159.934 14.8893 158.369C15.9563 159.151 16.7275 161.448 19.6754 161.448C23.7604 161.448 18.5523 148.656 21.7484 141.511C23.8069 136.908 27.3576 131.979 29.2781 131.024Z" fill="#121A39"/>
<path d="M38.6373 130.689C38.5154 130.225 37.3874 128.504 36.8387 127.701C33.0426 130.585 32.8105 132.655 34.4914 136.847C33.9934 136.765 32.9854 136.847 32.9366 137.822C32.8879 138.798 31.0567 143.228 30.2235 145.138C32.5227 145.514 33.8718 145.326 36.4119 144.102L38.1495 142.883C38.2105 142.425 38.3629 141.328 38.4849 140.596C38.6373 139.682 39.4604 139.163 40.6493 138.859C41.8382 138.554 42.7832 137.395 42.9661 137.06C43.1125 136.792 41.4825 134.713 40.6493 133.707C40.6696 133.727 40.7773 133.749 41.0456 133.676C41.3139 133.603 41.4825 132.853 41.5333 132.487C40.6188 132.081 38.7592 131.152 38.6373 130.689Z" fill="#A5644A"/>
<path d="M38.4847 140.596C38.3627 141.328 38.2103 142.425 38.1493 142.883L36.4422 144.102L34.7045 144.834C35.0297 143.919 35.5825 142.23 35.1923 140.596C34.928 139.489 34.7979 139.038 34.7415 138.894C34.7285 138.882 34.7162 138.87 34.7045 138.859C34.7045 138.826 34.7147 138.825 34.7415 138.894C35.0908 139.219 35.9101 139.824 36.686 139.895C37.4908 139.968 39.0674 139.438 39.7551 139.163C39.0571 139.479 38.595 139.934 38.4847 140.596Z" fill="#121A39"/>
<path d="M31.9914 141.358C29.7965 141.602 31.4733 138.787 32.205 137.547C32.0526 137.547 31.449 137.895 30.254 139.285C28.7603 141.023 29.6746 145.26 32.5402 143.431C36.1984 141.096 34.0136 138.33 33.0584 137.334L32.7842 137.547C33.0179 138.523 33.4085 141.201 31.9914 141.358Z" fill="black"/>
<path d="M66.7747 129.744C65.726 127.841 67.2726 124.165 68.1465 122.488H66.1955C63.4877 125.237 63.0601 127.128 63.8481 131.207L46.7767 149.65C46.7056 149.965 46.5633 151.022 46.5633 152.729C46.5633 154.436 47.6404 158.745 48.179 160.686L51.136 155.534C54.5286 150.011 62.1794 137.578 63.5433 135.993C64.2638 135.155 67.0267 131.51 67.5063 131.146C68.2684 130.567 68.0245 130.628 67.8416 130.079L66.7747 129.744Z" fill="#A5644A"/>
<path d="M59.4884 131.481C58.6836 132.359 52.0197 139.082 48.7883 142.334C48.2701 143.38 48.7714 145.317 47.6909 144.864C46.0318 144.168 36.2925 151.964 36.0457 153.857C41.1651 151.148 44.6073 148.97 46.8373 149.589L63.9697 131.237C63.8884 131.207 63.7075 130.536 63.6344 128.097C63.5612 125.659 65.433 123.342 66.378 122.488H65.2196H63.9697C63.7868 122.58 63.2198 123.061 62.415 124.256C61.6102 125.451 60.7993 128.778 60.4944 130.292C60.4944 130.323 60.2932 130.603 59.4884 131.481Z" fill="#121A39"/>
<path d="M8.48792 266.088L11.2737 263.602L13.1826 265C13.0106 266.58 12.7698 270.056 13.1826 270.491C10.7063 269.61 11.2222 266.874 11.2737 265.337L8.95222 266.58L8.48792 266.088Z" fill="black"/>
<path d="M50.3298 273.646L50.9749 269.968L53.3397 269.882C54.184 271.229 56.1494 274.106 56.743 274.191C54.2539 275.035 52.9624 272.567 52.0504 271.33L50.9991 273.744L50.3298 273.646Z" fill="black"/>
<path d="M36.7166 167.3C38.1799 167.837 44.7036 168.357 47.7825 168.55L47.1271 172.879C46.6038 172.828 44.9902 172.556 42.7221 171.873C40.4541 171.19 35.9444 167.829 33.973 166.233C34.2779 166.365 35.2534 166.764 36.7166 167.3Z" fill="#121A39"/>
<path d="M29.8505 216.602C27.6192 219.17 23.7854 226.373 21.9927 229.977C19.6663 229.803 16.5562 229.455 13.8533 228.924C13.8533 228.924 18.976 225.951 21.9927 223.667C24.7819 221.555 28.3967 218.043 29.8505 216.602C30.0855 216.331 30.3027 216.112 30.4979 215.954C30.4979 215.954 30.2599 216.196 29.8505 216.602Z" fill="#121A39"/>
<path d="M36.1554 240.19L35.4976 238.363C39.4836 233.225 41.7467 226.334 44.4601 210.925C43.5145 221.766 38.8003 235.399 36.1554 240.19Z" fill="#121A39"/>
<path d="M52.0814 237.69C50.2216 239.031 47.4269 242.913 46.929 243.543C46.3255 233.651 48.7145 223.964 49.6315 217.205C49.6577 216.892 49.6834 216.699 49.7036 216.655C49.6808 216.836 49.6567 217.02 49.6315 217.205C49.5131 218.621 49.3845 222.496 49.7036 226.197C50.1609 231.501 55.0788 235.231 56.1966 237.69C56.1661 237.598 53.9412 236.348 52.0814 237.69Z" fill="#121A39"/>
<path d="M35.0202 145.931C34.563 146.602 34.3493 148.096 34.4103 148.553L36.7169 148.157C36.534 147.181 37.8754 144.651 38.4241 144.011C38.0176 144.194 35.3861 145.395 35.0202 145.931Z" fill="#121A39"/>
<path d="M43.0878 165.288C40.527 165.191 37.0619 163.805 35.6495 163.124C40.1694 164.903 42.6281 165.321 46.8374 164.709V165.288C46.6545 165.329 45.6485 165.386 43.0878 165.288Z" fill="#121A39"/>
<path d="M45.5572 163.277C44.9475 163.338 43.4131 163.216 42.7526 163.094C44.3157 163.168 45.1753 163.163 46.5632 162.759V163.094C46.5022 163.094 46.1669 163.216 45.5572 163.277Z" fill="#121A39"/>
<path d="M210.54 277.956L213.902 273.545L216.385 278.314L210.54 277.956Z" fill="black"/>
<path d="M266.635 278.271L268.139 272.933L272.202 276.455L266.635 278.271Z" fill="black"/>
<path d="M232.703 134.591C233.605 132.469 235.355 130.882 236.117 130.353C241.711 128.121 247.039 132.384 244.866 138.127C243.958 140.526 242.59 143.218 241.36 144.163L241.848 146.754L243.098 146.053C243.84 147.12 245.488 149.65 246.146 151.235C246.805 152.821 245.181 173.337 244.287 183.397C244.653 184.362 245.793 187.28 247.427 191.231C249.469 196.17 249.774 204.858 248.981 210.04C248.347 214.186 249.246 221.34 249.774 224.399L268.888 270.918L266.358 271.863C258.401 259.08 242.196 233.148 241.025 231.684C239.854 230.221 235.761 218.901 233.861 213.424C233.77 213.617 233.489 214.131 233.099 214.643C232.709 215.156 227.002 218.556 224.197 220.192C224.177 220.659 224.021 222.746 223.557 227.356C223.094 231.965 217.918 258.907 215.357 270.918H212.278C211.953 253.786 211.839 217.357 212.278 215.771C212.827 213.79 216.79 208.486 218.832 203.09C220.466 198.773 224.604 192.491 226.423 189.89V186.902C225.864 185.185 224.466 180.769 223.344 176.842C222.222 172.916 222.023 166.63 222.063 163.978C221.068 163.114 218.966 161.179 218.527 160.35C217.978 159.314 217.735 158.521 215.387 157.027C213.04 155.534 212.461 152.668 210.388 149.772C208.315 146.876 208.406 145.077 206.638 143.401C204.87 141.724 205.48 141.145 204.565 139.773C203.651 138.401 201.73 137.426 200.999 136.206C200.267 134.987 199.017 135.017 199.81 133.554C200.444 132.384 199.545 127.274 199.017 124.866L202.279 122.488C202.939 123.169 204.462 125.012 205.266 126.939C206.071 128.866 205.907 130.709 205.724 131.39L208.406 133.158C211.475 135.963 218.064 141.883 219.869 143.126C222.124 144.681 231.849 150.839 232.977 150.229C233.879 149.742 235.487 149.721 236.178 149.772C236.198 149.691 236.166 149.181 235.873 147.791C235.507 146.053 233.891 143.797 232.703 143.919C231.514 144.041 230.66 143.248 229.624 142.578C228.587 141.907 230.172 140.84 230.995 140.2C231.654 139.688 230.132 138.137 229.288 137.426C230.05 137.365 231.8 136.712 232.703 134.591Z" fill="#A5644A"/>
<path d="M235.873 147.792C235.507 146.054 233.891 143.798 232.702 143.92L237.275 142.64L237.519 149.102L236.178 149.773C236.198 149.692 236.166 149.182 235.873 147.792Z" fill="#121A39"/>
<path d="M245.75 138.005C245 140.458 242.59 143.218 241.36 144.163L240.69 141.48C240.226 141.187 240.944 140.078 241.36 139.559C236.698 136.662 233.082 134.323 235.751 129.469C241.345 127.237 247.213 133.219 245.75 138.005Z" fill="#D2CBC5"/>
<path d="M226.423 189.89V186.902L244.287 183.396C244.653 184.362 245.793 187.28 247.427 191.231C249.469 196.17 249.774 204.858 248.981 210.04C248.347 214.186 249.246 221.34 249.774 224.398L268.888 270.918L266.358 271.863C258.401 259.08 242.196 233.147 241.025 231.684C239.854 230.221 235.761 218.901 233.861 213.424C233.77 213.617 233.489 214.131 233.099 214.643C232.709 215.155 227.002 218.555 224.197 220.192C224.177 220.659 224.021 222.746 223.557 227.355C223.094 231.965 217.918 258.907 215.357 270.918H212.278C211.953 253.786 211.839 217.356 212.278 215.771C212.827 213.79 216.79 208.485 218.832 203.09C220.466 198.773 224.604 192.491 226.423 189.89Z" fill="#6980A2"/>
<path d="M248.851 211.166C248.498 215.38 249.291 221.602 249.774 224.399L263.101 256.835L245.659 225.832C246.905 225.085 248.229 216.354 248.851 211.166C248.884 210.772 248.927 210.395 248.982 210.041C248.943 210.392 248.899 210.768 248.851 211.166Z" fill="#121A39"/>
<path d="M223.557 227.356C223.24 230.507 220.72 244.099 218.34 256.22C218.512 248.351 219.469 227.999 220.199 220.121C220.179 220.116 220.18 220.1 220.204 220.07C220.202 220.087 220.201 220.104 220.199 220.121C220.354 220.152 221.762 219.445 224.197 217.936C226.953 216.229 229.613 210.284 231.178 207.145L233.861 213.424C233.77 213.617 233.489 214.132 233.099 214.644C232.709 215.156 227.002 218.556 224.197 220.192C224.177 220.659 224.021 222.747 223.557 227.356Z" fill="#121A39"/>
<path d="M232.977 150.23C233.879 149.742 235.487 149.722 236.178 149.772L241.848 146.754L243.098 146.053C243.84 147.12 245.488 149.65 246.146 151.236C246.805 152.821 245.181 173.337 244.287 183.397C244.5 183.961 244.978 185.19 245.664 186.903C238.15 187.698 233.785 187.399 226.27 186.476C226.27 186.476 224.466 180.769 223.344 176.843C222.222 172.916 222.023 166.63 222.063 163.978C221.068 163.114 218.966 161.18 218.527 160.351C217.978 159.314 217.735 158.521 215.387 157.028C213.04 155.534 212.461 152.668 210.388 149.772C208.315 146.876 208.406 145.078 206.638 143.401C204.87 141.724 205.48 141.145 204.565 139.773C203.651 138.402 201.73 137.426 200.999 136.207L204.87 133.707L208.406 133.158C211.475 135.963 218.064 141.883 219.869 143.127C222.124 144.681 231.849 150.839 232.977 150.23Z" fill="#D2CBC5"/>
<path d="M245.943 161.875C245.513 168.898 244.786 177.778 244.287 183.397C244.5 183.96 244.978 185.19 245.664 186.902C245.296 186.557 244.122 185.787 242.366 185.47C240.61 185.153 239.826 184.972 239.653 184.921C240.913 184.423 243.086 182.738 243.159 181.08C243.232 179.421 243.311 178.224 243.159 177.696C242.885 178.489 241.525 180.202 240.354 180.714C239.184 181.226 238.678 181.354 238.312 181.354C239.714 178.865 242.647 173.312 243.159 171.02C243.748 168.385 245.119 163.56 245.943 161.875Z" fill="#121A39"/>
<path d="M219.868 143.126C222.124 144.681 231.849 150.839 232.977 150.229C232.306 150.859 230.947 152.424 230.873 153.644C230.8 154.863 230.843 155.31 230.873 155.381C228.394 152.963 223.155 147.961 222.033 147.303C220.911 146.644 217.196 143.797 215.479 142.456L204.84 133.859C204.202 128.91 203.504 126.468 200.648 123.677L202.279 122.488C202.939 123.169 204.462 125.012 205.266 126.939C206.071 128.866 205.907 130.709 205.724 131.39L208.406 133.158C211.475 135.963 218.064 141.883 219.868 143.126Z" fill="#121A39"/>
<path d="M206.638 143.401C204.87 141.724 205.48 141.145 204.565 139.773C205.602 141.115 207.985 143.925 209.229 144.438C210.473 144.95 213.019 148.98 214.137 150.931C215.552 152.662 219.36 152.973 221.088 152.912C220.803 153.085 220.1 153.51 219.564 153.827C219.045 154.162 217.673 156.449 218.771 157.881C219.025 158.196 219.911 158.832 221.423 158.857C222.935 158.881 222.455 159.843 222.063 160.351C221.24 161.418 223.344 163.094 224.715 163.978C225.813 164.686 227.286 167.26 227.886 168.46C227.398 168.744 226.545 170.612 227.032 175.806C227.52 181.001 229.329 185.368 230.172 186.903H226.423C225.864 185.185 224.465 180.769 223.344 176.843C222.222 172.916 222.023 166.63 222.063 163.978C221.067 163.115 218.966 161.18 218.527 160.351C217.978 159.314 217.734 158.522 215.387 157.028C213.04 155.534 212.461 152.668 210.388 149.772C208.315 146.876 208.406 145.078 206.638 143.401Z" fill="#121A39"/>
<path d="M238.586 152.089L236.087 150.321C236.595 151.155 238.172 153.144 238.586 152.852C239.001 152.559 242.803 152.526 244.653 152.547C245.994 152.561 245.695 152.205 245.476 151.327C245.256 150.449 240.598 151.358 238.586 152.089Z" fill="#121A39"/>
</g>
</svg>
