<svg width="22" height="21" viewBox="0 0 22 21" fill="none" xmlns="http://www.w3.org/2000/svg">
<path d="M1 14.8721V20.0003H3.69959V14.8721H1Z" fill="white"/>
<path d="M8.01893 16.5815H10.7185M10.7185 16.5815H15.0379C15.0379 16.5815 16.6576 14.8721 17.7375 13.7325C18.8173 12.5929 21.5169 13.1627 20.437 14.3023C19.3572 15.4419 15.0379 20.0003 15.0379 20.0003H3.69959M10.7185 16.5815L13.5 16.5004C13.5 16.5004 14.5399 15.5702 14 15.0004C13.4601 14.4306 11.5 14.8721 9.99999 14.0003C8.49999 13.1285 6 12.0004 3.6519 14.8721M3.69959 20.0003H1V14.8721H3.69959V20.0003Z" stroke="white" stroke-width="1.15"/>
<path d="M20.5398 0.557043C19.5928 0.153522 18.6451 2.98303e-08 17.6978 2.98303e-08C14.6908 -0.000247986 11.684 1.54613 8.67696 1.54613C7.92282 1.54613 7.16917 1.44891 6.41503 1.20585C6.33031 1.17857 6.24535 1.16567 6.16234 1.16567C5.74218 1.16567 5.375 1.49603 5.375 1.95461V9.82315C5.375 10.1364 5.55151 10.4333 5.83495 10.5538C6.78196 10.9576 7.72971 11.1111 8.67696 11.1111C11.684 11.1111 14.691 9.56472 17.6981 9.56472C18.4522 9.56472 19.2059 9.66194 19.96 9.905C20.0447 9.93228 20.1297 9.94517 20.2127 9.94517C20.6329 9.94517 21 9.61482 21 9.15624V1.28794C20.9998 0.974453 20.8233 0.677826 20.5398 0.557043V0.557043ZM13.1874 7.9365C12.1086 7.9365 11.2343 6.87028 11.2343 5.55555C11.2343 4.24057 12.1088 3.1746 13.1874 3.1746C14.266 3.1746 15.1405 4.24057 15.1405 5.55555C15.1405 6.87077 14.2658 7.9365 13.1874 7.9365Z" fill="white"/>
</svg>
