<svg width="20" height="20" viewBox="0 0 20 20" fill="none" xmlns="http://www.w3.org/2000/svg">
<path d="M18.3333 0H1.66667C1.22472 0.000275956 0.800961 0.175959 0.48846 0.48846C0.175959 0.800961 0.000275956 1.22472 0 1.66667V18.3333C0.000275956 18.7753 0.175959 19.199 0.48846 19.5115C0.800961 19.824 1.22472 19.9997 1.66667 20H12.9883C13.2072 20.0004 13.4241 19.9574 13.6263 19.8736C13.8286 19.7898 14.0122 19.6668 14.1667 19.5117L19.5118 14.1667C19.6669 14.0122 19.7899 13.8285 19.8737 13.6263C19.9575 13.424 20.0004 13.2072 20 12.9882V1.66667C19.9997 1.22472 19.824 0.800961 19.5115 0.48846C19.199 0.175959 18.7753 0.000275956 18.3333 0ZM6.66667 5.83333H13.3333C13.5543 5.83333 13.7663 5.92113 13.9226 6.07741C14.0789 6.23369 14.1667 6.44565 14.1667 6.66667C14.1667 6.88768 14.0789 7.09964 13.9226 7.25592C13.7663 7.4122 13.5543 7.5 13.3333 7.5H6.66667C6.44565 7.5 6.23369 7.4122 6.07741 7.25592C5.92113 7.09964 5.83333 6.88768 5.83333 6.66667C5.83333 6.44565 5.92113 6.23369 6.07741 6.07741C6.23369 5.92113 6.44565 5.83333 6.66667 5.83333ZM10 14.1667H6.66667C6.44565 14.1667 6.23369 14.0789 6.07741 13.9226C5.92113 13.7663 5.83333 13.5543 5.83333 13.3333C5.83333 13.1123 5.92113 12.9004 6.07741 12.7441C6.23369 12.5878 6.44565 12.5 6.66667 12.5H10C10.221 12.5 10.433 12.5878 10.5893 12.7441C10.7455 12.9004 10.8333 13.1123 10.8333 13.3333C10.8333 13.5543 10.7455 13.7663 10.5893 13.9226C10.433 14.0789 10.221 14.1667 10 14.1667ZM6.66667 10.8333C6.44565 10.8333 6.23369 10.7455 6.07741 10.5893C5.92113 10.433 5.83333 10.221 5.83333 10C5.83333 9.77898 5.92113 9.56702 6.07741 9.41074C6.23369 9.25446 6.44565 9.16667 6.66667 9.16667H13.3333C13.5543 9.16667 13.7663 9.25446 13.9226 9.41074C14.0789 9.56702 14.1667 9.77898 14.1667 10C14.1667 10.221 14.0789 10.433 13.9226 10.5893C13.7663 10.7455 13.5543 10.8333 13.3333 10.8333H6.66667ZM13.3333 17.9883V13.3317H17.9899L13.3333 17.9883Z" fill="white"/>
</svg>
