<svg width="46" height="46" viewBox="0 0 46 46" fill="none" xmlns="http://www.w3.org/2000/svg">
<path d="M34.6436 2.97852L42.6419 11.316V43.0215H12.7634V43.125H42.7439V11.421L34.6436 2.97852Z" fill="#909090"/>
<path d="M34.5444 2.875H12.6614V43.0215H42.6419V11.3174L34.543 2.875" fill="#F4F4F4"/>
<path d="M12.4415 5.03125H3.25586V14.8451H32.1496V5.03125H12.4415Z" fill="#7A7B7C"/>
<path d="M32.3033 14.6784H3.44263V4.85742H32.3033V14.6784Z" fill="#DD2025"/>
<path d="M13.0124 6.51758H11.1335V13.4176H12.6113V11.0903L12.9376 11.109C13.2547 11.1035 13.5688 11.0467 13.8677 10.9408C14.1297 10.8506 14.3708 10.7083 14.5764 10.5225C14.7855 10.3454 14.9504 10.1219 15.0579 9.86983C15.2021 9.45079 15.2536 9.00546 15.2089 8.56458C15.1999 8.24963 15.1447 7.93772 15.045 7.63883C14.9542 7.42307 14.8196 7.22857 14.6495 7.0677C14.4795 6.90683 14.2779 6.78313 14.0574 6.70445C13.8668 6.63545 13.6699 6.58538 13.4695 6.55495C13.3177 6.53154 13.1645 6.51905 13.0109 6.51758H13.0124ZM12.7392 9.8152H12.6113V7.6877H12.8887C13.0112 7.67887 13.134 7.69767 13.2482 7.74271C13.3625 7.78774 13.4651 7.85786 13.5485 7.94789C13.7215 8.17935 13.8139 8.46108 13.8116 8.75002C13.8116 9.10364 13.8116 9.4242 13.4925 9.64989C13.2626 9.77634 13.0009 9.83327 12.7392 9.81377" fill="#464648"/>
<path d="M18.0161 6.49917C17.8565 6.49917 17.7013 6.51067 17.592 6.51498L17.2499 6.52361H16.1287V13.4236H17.4483C17.9526 13.4374 18.4547 13.352 18.926 13.172C19.3054 13.0216 19.6413 12.779 19.9035 12.4662C20.1585 12.1506 20.3415 11.7832 20.4397 11.3895C20.5527 10.9437 20.6077 10.4852 20.6036 10.0254C20.6315 9.48221 20.5894 8.93773 20.4785 8.4053C20.3733 8.01338 20.1762 7.65218 19.9035 7.35161C19.6896 7.10891 19.4278 6.91313 19.1345 6.77661C18.8826 6.66005 18.6176 6.57415 18.3453 6.52073C18.237 6.50284 18.1273 6.49467 18.0175 6.4963L18.0161 6.49917ZM17.7559 12.1557H17.6122V7.75124H17.6308C17.9272 7.71714 18.2271 7.77061 18.4933 7.90505C18.6884 8.06077 18.8473 8.25695 18.9591 8.48005C19.0798 8.71484 19.1494 8.97254 19.1632 9.23617C19.1762 9.55242 19.1632 9.81117 19.1632 10.0254C19.1691 10.2721 19.1532 10.5189 19.1158 10.7628C19.0715 11.0133 18.9896 11.2556 18.8728 11.4815C18.7407 11.6916 18.5622 11.8687 18.351 11.999C18.1737 12.1138 17.9637 12.1673 17.753 12.1514" fill="#464648"/>
<path d="M25.0556 6.52344H21.5625V13.4234H23.0403V10.6864H24.909V9.40419H23.0403V7.80569H25.0527V6.52344" fill="#464648"/>
<path d="M31.31 29.1159C31.31 29.1159 35.8927 28.2851 35.8927 29.8505C35.8927 31.4159 33.0537 30.7791 31.31 29.1159ZM27.9218 29.2352C27.1937 29.3961 26.4841 29.6317 25.8044 29.9382L26.3794 28.6444C26.9544 27.3507 27.5509 25.5869 27.5509 25.5869C28.2371 26.7417 29.0354 27.826 29.9343 28.8241C29.2564 28.9252 28.5846 29.0634 27.9218 29.2381V29.2352ZM26.1077 19.8915C26.1077 18.5273 26.549 18.155 26.8926 18.155C27.2361 18.155 27.6228 18.3203 27.6357 19.5048C27.5238 20.6959 27.2744 21.87 26.8926 23.0037C26.3695 22.0518 26.0988 20.9819 26.1062 19.8958L26.1077 19.8915ZM19.4247 35.0083C18.0189 34.1673 22.3731 31.5784 23.1622 31.495C23.1579 31.4964 20.8967 35.888 19.4247 35.0083ZM37.2311 30.0359C37.2167 29.8922 37.0873 28.3009 34.2554 28.3684C33.0751 28.3494 31.8953 28.4326 30.7292 28.6171C29.5997 27.4792 28.6271 26.1957 27.837 24.8006C28.3348 23.3622 28.636 21.8633 28.7326 20.3443C28.6909 18.6193 28.2783 17.6303 26.9558 17.6447C25.6333 17.6591 25.4407 18.8162 25.6146 20.5384C25.785 21.6956 26.1064 22.8256 26.5705 23.8992C26.5705 23.8992 25.9596 25.8011 25.1517 27.6928C24.3439 29.5846 23.7919 30.5764 23.7919 30.5764C22.387 31.0338 21.0645 31.7132 19.8747 32.5889C18.6902 33.6915 18.2086 34.5382 18.8325 35.3849C19.3701 36.1151 21.2518 36.2804 22.9337 34.0767C23.8273 32.9386 24.6437 31.7418 25.3774 30.4945C25.3774 30.4945 27.9419 29.7916 28.7397 29.5989C29.5376 29.4063 30.5021 29.2539 30.5021 29.2539C30.5021 29.2539 32.8438 31.61 35.1021 31.5266C37.3604 31.4432 37.2512 30.1768 37.2368 30.0388" fill="#DD2025"/>
<path d="M34.4338 2.98633V11.4288H42.5313L34.4338 2.98633Z" fill="#909090"/>
<path d="M34.5447 2.875V11.3174H42.6421L34.5447 2.875Z" fill="#F4F4F4"/>
<path d="M12.9015 6.40625H11.0227V13.3063H12.5062V10.9804L12.834 10.9991C13.151 10.9936 13.4651 10.9368 13.764 10.8309C14.0261 10.7407 14.2671 10.5984 14.4727 10.4126C14.6803 10.235 14.8437 10.0116 14.95 9.75994C15.0941 9.3409 15.1456 8.89557 15.1009 8.45469C15.0919 8.13974 15.0367 7.82783 14.937 7.52894C14.8463 7.31318 14.7116 7.11868 14.5416 6.95781C14.3716 6.79694 14.1699 6.67323 13.9495 6.59456C13.758 6.52489 13.5601 6.47433 13.3586 6.44363C13.2069 6.42021 13.0536 6.40772 12.9001 6.40625H12.9015ZM12.6284 9.70388H12.5005V7.57638H12.7793C12.9018 7.56755 13.0246 7.58634 13.1388 7.63138C13.2531 7.67641 13.3557 7.74654 13.4391 7.83656C13.6121 8.06802 13.7045 8.34976 13.7022 8.63869C13.7022 8.99231 13.7022 9.31288 13.3831 9.53856C13.1532 9.66501 12.8915 9.72194 12.6298 9.70244" fill="white"/>
<path d="M17.9058 6.38784C17.7463 6.38784 17.591 6.39934 17.4818 6.40366L17.144 6.41228H16.0227V13.3123H17.3423C17.8466 13.3261 18.3487 13.2406 18.8201 13.0607C19.1995 12.9102 19.5354 12.6677 19.7976 12.3549C20.0525 12.0393 20.2355 11.6719 20.3338 11.2782C20.4467 10.8324 20.5018 10.3739 20.4976 9.91403C20.5255 9.37088 20.4835 8.8264 20.3726 8.29397C20.2673 7.90205 20.0702 7.54085 19.7976 7.24028C19.5837 6.99758 19.3218 6.8018 19.0285 6.66528C18.7766 6.54872 18.5117 6.46282 18.2393 6.40941C18.131 6.39152 18.0213 6.38334 17.9116 6.38497L17.9058 6.38784ZM17.65 12.0444H17.5062V7.63991H17.5249C17.8212 7.60581 18.1211 7.65928 18.3874 7.79372C18.5824 7.94944 18.7413 8.14562 18.8531 8.36872C18.9738 8.60351 19.0434 8.86121 19.0573 9.12484C19.0702 9.44109 19.0573 9.69984 19.0573 9.91403C19.0631 10.1608 19.0472 10.4075 19.0098 10.6515C18.9655 10.9019 18.8836 11.1442 18.7669 11.3702C18.6348 11.5803 18.4563 11.7573 18.2451 11.8877C18.0677 12.0024 17.8577 12.0559 17.6471 12.0401" fill="white"/>
<path d="M24.9448 6.41211H21.4517V13.3121H22.9294V10.5751H24.7982V9.29286H22.9294V7.69436H24.9419V6.41211" fill="white"/>
</svg>
